<?xml version="1.0" encoding="UTF-8" standalone="no"?>
<svg
   xmlns:dc="http://purl.org/dc/elements/1.1/"
   xmlns:cc="http://creativecommons.org/ns#"
   xmlns:rdf="http://www.w3.org/1999/02/22-rdf-syntax-ns#"
   xmlns:svg="http://www.w3.org/2000/svg"
   xmlns="http://www.w3.org/2000/svg"
   xmlns:sodipodi="http://sodipodi.sourceforge.net/DTD/sodipodi-0.dtd"
   xmlns:inkscape="http://www.inkscape.org/namespaces/inkscape"
   viewBox="0 0 512 512"
   style="height: 512px; width: 512px;"
   version="1.1"
   id="svg22"
   sodipodi:docname="card-draw.svg"
   inkscape:version="0.92.4 (5da689c313, 2019-01-14)">
  <metadata
     id="metadata28">
    <rdf:RDF>
      <cc:Work
         rdf:about="">
        <dc:format>image/svg+xml</dc:format>
        <dc:type
           rdf:resource="http://purl.org/dc/dcmitype/StillImage" />
      </cc:Work>
    </rdf:RDF>
  </metadata>
  <defs
     id="defs26" />
  <sodipodi:namedview
     pagecolor="#ffffff"
     bordercolor="#666666"
     borderopacity="1"
     objecttolerance="10"
     gridtolerance="10"
     guidetolerance="10"
     inkscape:pageopacity="0"
     inkscape:pageshadow="2"
     inkscape:window-width="1366"
     inkscape:window-height="705"
     id="namedview24"
     showgrid="false"
     inkscape:zoom="1"
     inkscape:cx="259.54973"
     inkscape:cy="414.51082"
     inkscape:window-x="-8"
     inkscape:window-y="-8"
     inkscape:window-maximized="1"
     inkscape:current-layer="svg22" />
  <rect
     height="512"
     width="512"
     rx="32"
     ry="32"
     id="rect2"
     x="0"
     y="0"
     style="fill:#000000;fill-opacity:1" />
  <g
     class=""
     transform="translate(20,0)"
     id="g20"
     style="touch-action: none;">
    <g
       transform="translate(0, 512) scale(1, -1) rotate(180, 256, 256)"
       id="g18">
      <path
         d="M209.955 488.202L88.713 441.582C77.405 437.242 77.07 429.495 87.923 424.294L204.8 469.236C219.824 475.013 242.03 474.156 256.574 467.276L418.096 390.676C428.11 395.112 427.96 402.494 417.426 407.474L250.43 486.668C239.447 491.863 221.302 492.57 209.953 488.202Z"
         class=""
         id="path4"
         fill-opacity="1"
         fill="#fff" />
      <path
         d="M209.955 455.832L88.713 409.21C79.09 405.52 77.41 399.36 83.81 394.4L204.8 440.917C219.824 446.693 242.03 445.837 256.574 438.957L421.967 360.524C427.822 364.941 426.347 370.884 417.425 375.104L250.432 454.297C239.449 459.493 221.304 460.2 209.955 455.831Z"
         class=""
         id="path6"
         fill-opacity="1"
         fill="#fff" />
      <path
         d="M209.955 427.518L88.713 380.892C79.089 377.202 77.411 371.042 83.811 366.079L204.801 412.602C219.825 418.372 242.031 417.516 256.575 410.642L421.968 332.204C427.823 336.62 426.348 342.564 417.426 346.784L250.433 425.984C239.45 431.178 221.305 431.879 209.956 427.517Z"
         class=""
         id="path8"
         fill-opacity="1"
         fill="#fff" />
      <path
         d="M209.955 399.198L88.713 352.572C79.089 348.882 77.411 342.722 83.811 337.76L204.801 384.284C219.825 390.06 242.031 389.204 256.575 382.324L421.968 303.884C427.823 308.308 426.348 314.252 417.426 318.47L250.433 397.664C239.45 402.86 221.305 403.561 209.956 399.198Z"
         class=""
         id="path10"
         fill-opacity="1"
         fill="#fff" />
      <path
         d="M 209.955,370.878 88.713,324.26 c -11.35,-4.355 -11.643,-12.15 -0.66,-17.353 l 87.236,-41.376 106.30905,-46.43988 v 0 l 46.75695,19.70088 88.404,34.007 c 11.344,4.357 11.65,12.16 0.665,17.354 l -166.993,79.195 c -10.983,5.195 -29.128,5.902 -40.477,1.534 z"
         class=""
         id="path12"
         inkscape:connector-curvature="0"
         style="fill:#ffffff;fill-opacity:1"
         sodipodi:nodetypes="cccccccccccc" />
      <path
         d="M238.442 165.625L238.442 100.67L203.597 100.67L252.727 20.93L301.847 100.67L267 100.67L267 165.625L238.442 165.625Z"
         class=""
         id="path16"
         fill-opacity="1"
         fill="#000000" />
    </g>
  </g>
  <path
     style="fill:#000000;fill-opacity:1"
     id="path860"
     d="m 248.76557,209.65369 c 1.60435,-0.38841 3.21584,-0.73901 4.80365,-1.20665 1.62187,-0.54234 3.25816,-0.991 4.95677,-1.1928 1.07619,-0.0943 2.15973,-0.0845 3.23957,-0.0895 0.81362,-0.002 1.62724,-0.002 2.44086,-0.002 1.01628,-0.0588 1.96699,0.28175 2.93077,0.54993 0.45237,0.13454 0.93284,0.11112 1.36462,0.32267 0.19263,0.0944 0.35771,0.23752 0.54462,0.34276 0.33665,0.18955 0.68897,0.3502 1.02682,0.5376 0.86897,0.53432 1.77958,0.98801 2.63146,1.54966 0,0 -15.07671,9.69521 -15.07671,9.69521 v 0 c -0.81786,-0.50349 -1.63926,-1.00945 -2.51657,-1.40418 -0.1813,-0.0809 -0.83723,-0.37958 -1.0216,-0.43776 -0.56851,-0.17942 -1.20151,-0.16166 -1.75778,-0.40161 -0.91119,-0.2069 -1.82217,-0.17744 -2.75078,-0.13626 -0.79565,-0.006 -1.59125,-0.0165 -2.38692,-0.0207 -0.99071,0.003 -1.98218,0.0282 -2.96032,0.20404 -1.5504,0.28416 -3.06067,0.74323 -4.57438,1.17643 -1.80662,0.47218 -3.6092,0.94943 -5.41216,1.43221 0,0 14.51808,-10.91881 14.51808,-10.91881 z"
     inkscape:connector-curvature="0" />
  <path
     style="fill:#000000;fill-opacity:1"
     id="path864"
     d="m 249.9769,211.72505 c 2.31531,-0.18914 4.60461,-0.6496 6.85934,-1.19987 3.46036,-0.80989 6.9449,-1.52692 10.48831,-1.83615 2.87313,-0.1754 5.76443,-0.20209 8.63664,-0.009 3.23191,0.20854 6.46932,0.26212 9.70679,0.22706 1.73488,-0.012 3.46759,-0.10315 5.20085,-0.16947 0.45048,-0.0175 0.90121,-0.0264 1.35194,-0.0344 0,0 -14.60568,10.61397 -14.60568,10.61397 v 0 c -0.42276,-0.007 -0.84554,-0.0144 -1.26797,-0.0335 -1.55212,-0.0727 -3.10124,-0.1965 -4.6534,-0.26898 -3.16255,-0.177 -6.32696,-0.33237 -9.4942,-0.39342 -2.89365,0.0315 -5.78952,0.0588 -8.67581,0.2915 -3.3665,0.33481 -6.71286,0.84488 -9.97562,1.76583 -2.73903,0.68089 -5.49785,1.41568 -8.30259,1.74905 0,0 14.7314,-10.70299 14.7314,-10.70299 z"
     inkscape:connector-curvature="0" />
  <path
     style="fill:#000000;fill-opacity:1"
     id="path868"
     d="m 251.18688,210.59798 c 2.3555,0.38044 4.73795,0.20772 7.09698,-0.0276 4.19276,-0.44216 8.2394,-1.681 12.31905,-2.67919 0.62703,-0.12245 1.25378,-0.24636 1.8811,-0.36735 1.47249,-0.28399 2.16144,-0.44059 3.65466,-0.59731 2.04567,-0.21471 4.11159,-0.271 6.16572,-0.3346 4.14757,-0.0493 8.24392,-0.73729 12.33514,-1.34875 1.57114,-0.25996 3.15177,-0.45646 4.73476,-0.62709 0,0 -14.23244,10.5045 -14.23244,10.5045 v 0 c -1.36767,0.05 -2.73286,0.13722 -4.09618,0.259 -4.01218,0.39108 -8.01822,0.827 -12.04945,0.98594 -3.93351,0.28014 -7.84702,0.74148 -11.68686,1.67423 -4.10747,0.9802 -8.22569,1.95991 -12.42005,2.49271 -2.78386,0.34268 -5.57398,0.51028 -8.3692,0.7216 0,0 14.66677,-10.65604 14.66677,-10.65604 z"
     inkscape:connector-curvature="0" />
  <path
     style="fill:#000000;fill-opacity:1"
     id="path874"
     d="m 256.9415,220.85876 c -1.3525,-0.18857 -2.67171,-0.52983 -4.03053,-0.70083 -1.29812,-0.21744 -2.54568,-0.61036 -3.80129,-0.98998 -1.03765,-0.48097 -2.17625,-0.58928 -3.30345,-0.64583 -0.97079,-0.006 -1.94141,-0.023 -2.91227,-0.0147 -0.91309,0.0151 -1.82613,0.0315 -2.73931,0.0398 -0.52297,0.004 -1.04596,0.005 -1.56895,0.006 0,0 14.62131,-10.62431 14.62131,-10.62431 v 0 c 0.51736,2.4e-4 1.03472,4.7e-4 1.55208,0.003 0.88696,0.004 1.77389,0.0132 2.66074,0.028 1.01187,0.014 2.02789,-0.0118 3.02592,0.18936 1.18761,0.22197 2.34989,0.53525 3.48974,0.93712 1.15046,0.39423 2.34376,0.64648 3.54608,0.8231 1.35869,0.24809 2.70554,0.54714 4.09438,0.31705 0,0 -14.63445,10.63255 -14.63445,10.63255 z"
     inkscape:connector-curvature="0" />
  <path
     style="fill:#000000;fill-opacity:1"
     id="path876"
     d="m 263.87801,199.59114 c 0.1093,1.05227 0.15259,2.07418 -0.29894,3.0514 -0.059,0.14143 -0.27932,0.69011 -0.36761,0.82344 -0.0603,0.0911 -0.60909,0.77901 -0.67379,0.81694 -5.24572,3.07552 -10.53553,6.07518 -15.8033,9.11277 29.57975,-14.35982 17.99532,-11.3347 13.03547,-7.35304 0,0 -16.37809,7.19246 -16.37809,7.19246 v 0 c 0.0773,-0.2229 0.12423,-0.45876 0.23185,-0.6687 0.25147,-0.49059 0.67751,-0.81265 1.09685,-1.13394 0.10817,-0.0829 0.20425,-0.18043 0.30638,-0.27064 5.26589,-3.04841 10.53178,-6.09681 15.79767,-9.14522 -5.06898,2.9263 -10.15981,5.81507 -15.20694,8.77891 -0.0949,0.0557 0.22116,-0.013 0.32752,-0.0412 0.509,-0.13492 0.10918,-0.09 0.5581,-0.36928 1.03392,-0.64311 -0.35923,0.44028 0.62459,-0.36082 0.37991,-0.60371 1.05372,-1.05161 0.69571,-1.84958 0,0 16.05453,-8.58348 16.05453,-8.58348 z"
     inkscape:connector-curvature="0" />
  <path
     style="fill:#000000;fill-opacity:1"
     id="path880"
     d="m 253.96252,218.59289 c -1.00127,-0.10426 -2.01622,-0.0921 -3.02302,-0.097 -1.26557,0.0985 -2.50332,-0.12608 -3.75622,-0.24982 -0.0918,0.009 -1.32158,-0.12087 -1.3647,-0.0783 -0.074,0.073 -0.056,0.36846 0.0301,0.31026 14.89043,-10.06509 12.64845,-4.88336 15.10583,-10.62836 0.7399,0.38784 1.59165,0.43396 2.41069,0.47329 0.53063,0.0171 1.0616,0.0107 1.59236,0.006 0,0 -14.63764,10.58479 -14.63764,10.58479 v 0 c -0.55596,-0.0292 -1.11217,-0.0654 -1.66218,-0.15633 -0.87905,-0.15279 -1.73641,-0.42638 -2.62159,-0.51877 -5.92256,-2.90048 -0.96906,-0.30609 14.41896,-10.82302 0.0968,-0.0662 0.1327,0.19766 0.224,0.27124 0.26435,0.21305 0.80775,0.0706 1.08591,0.20234 1.21197,0.14254 2.4201,0.0967 3.63877,0.0975 1.09639,-0.005 2.19768,-9e-4 3.29012,-0.097 0,0 -14.73141,10.70299 -14.73141,10.70299 z"
     inkscape:connector-curvature="0" />
  <path
     style="fill:#000000;fill-opacity:1"
     id="path886"
     d="m 252.04494,218.9764 c -0.94304,-0.1188 -1.90052,-0.0762 -2.84923,-0.0646 -0.84911,0.0125 -1.69828,0.0194 -2.54747,0.023 -0.73979,0.0682 -1.54799,-0.15453 -2.24323,0.13451 -0.0899,0.0517 -0.19435,0.0837 -0.26962,0.155 -0.0585,0.0555 -0.18454,0.25621 -0.11739,0.21155 5.06458,-3.36882 10.17061,-6.67964 15.13191,-10.19879 0.38294,-0.27163 -0.50294,-0.39702 -0.0387,-0.50487 0.0967,-0.0225 0.19855,-0.005 0.29783,-0.008 0.24892,0.0603 0.52075,-0.0653 0.76899,-0.001 0.19183,0.0494 0.35793,0.17039 0.54181,0.24405 0.53843,0.21568 1.03677,0.42496 1.55102,0.69965 0,0 -14.92014,9.93151 -14.92014,9.93151 v 0 c -0.43399,-0.14332 -0.93032,-0.33372 -1.39498,-0.34578 -0.4091,-0.0106 -0.83841,0.12438 -1.25323,0.0169 -0.50843,-0.0642 -1.75542,-0.43667 -1.34537,-0.74405 40.98358,-30.72227 8.44034,-10.88672 15.54162,-10.25273 0.78675,0.0709 1.57688,0.0304 2.36622,0.0428 0.82812,0.004 1.65622,0.0103 2.48426,0.023 1.00871,0.0127 2.02249,0.0444 3.02711,-0.0646 0,0 -14.73141,10.70299 -14.73141,10.70299 z"
     inkscape:connector-curvature="0" />
  <path
     style="fill:#000000;fill-opacity:1"
     id="path888"
     d="m 248.20979,220.89398 c -0.84527,-0.0889 -1.69911,-0.0614 -2.54793,-0.0554 -0.82148,0.008 -1.64297,0.012 -2.46447,0.0143 -0.5465,0.0917 -1.41188,-0.11859 -1.9246,0.002 -0.10378,0.0244 -0.18632,0.10364 -0.27948,0.15546 -0.80127,0.0688 -1.45955,0.54409 -2.21914,0.73724 -0.12308,0.0796 -0.24615,0.15926 -0.36923,0.23888 0,0 14.13795,-11.17515 14.13795,-11.17515 v 0 c 0.14952,-0.0374 0.29905,-0.0749 0.44857,-0.11232 0.79891,-0.33299 1.65587,-0.42653 2.50985,-0.53217 0.76425,0.12337 1.54242,0.0405 2.31443,0.0655 0.80837,0.002 1.61673,0.007 2.42506,0.0143 0.9,0.007 1.80312,0.0271 2.70039,-0.0554 0,0 -14.7314,10.70299 -14.7314,10.70299 z"
     inkscape:connector-curvature="0" />
  <path
     style="fill:#000000;fill-opacity:1"
     id="path896"
     d="m 251.61353,209.61739 c 1.63268,0.82793 3.5302,0.92001 5.32165,1.0909 2.88105,0.26986 5.7733,0.16531 8.66055,0.11878 1.93892,-0.004 3.87639,-0.0815 5.81484,-0.10976 1.33552,-0.004 2.67066,-0.0508 4.00612,-0.0536 1.07619,0.0147 2.15234,-0.015 3.22834,-0.032 0.95948,-0.18189 1.71722,0.38267 2.60284,0.60617 0.86053,0.11318 1.70751,0.29028 2.53447,0.55644 0,0 -14.76368,10.16151 -14.76368,10.16151 v 0 c -0.88088,-0.16821 -1.77542,-0.27018 -2.63476,-0.5324 -0.10951,-0.0338 -0.67547,-0.21707 -0.83053,-0.23637 -0.48385,-0.0602 -0.99489,0.13369 -1.4821,0.0331 -1.04647,-0.0173 -2.09308,-0.0473 -3.13976,-0.0316 -1.28821,-0.002 -2.57616,-0.0473 -3.86448,-0.0466 -1.84561,-0.022 -3.69024,-0.0924 -5.53601,-0.1101 -2.86346,-0.0864 -5.7243,-0.25441 -8.58855,-0.32463 -2.10395,-0.13486 -4.174,-0.45956 -6.26548,-0.68195 0,0 14.93654,-10.40788 14.93654,-10.40788 z"
     inkscape:connector-curvature="0" />
  <path
     style="fill:#000000;fill-opacity:1"
     id="path898"
     d="m 248.92893,210.76794 c 1.10919,0.26455 2.26882,0.27579 3.40416,0.31171 1.00789,-0.0288 2.03483,0.10064 3.041,-0.002 0.004,-4.3e-4 1.11179,-0.21827 1.14527,-0.22486 0.68213,0.0536 0.96972,-0.51532 1.50615,-0.76917 0.81551,-0.38591 -0.071,0.14548 0.67486,-0.32872 0.72135,-0.39557 1.58132,-0.16187 2.31551,-0.4505 0.12467,-0.0309 0.25876,-0.0361 0.37403,-0.0928 0.94676,-0.46573 -0.39599,-0.0131 0.58388,-0.37772 0.35282,-0.13129 0.66264,-0.11792 1.00205,-0.29374 0.74973,-0.2484 1.54929,-0.24126 2.33035,-0.24774 0.13204,2.5e-4 0.26417,0.006 0.39612,7.4e-4 0.10972,-0.004 0.22021,-0.008 0.32819,-0.0284 0.0596,-0.011 0.21942,-0.0993 0.17035,-0.0637 -14.96772,10.85741 -8.83781,11.01131 -15.40848,10.75301 -0.5348,0.25636 -1.15618,0.14814 -1.72355,0.26224 -0.28468,0.0573 -0.65311,0.23278 -0.91509,0.34562 -0.93783,0.35898 -1.92981,0.48151 -2.92531,0.53091 -0.75153,0.31556 -1.56897,0.3567 -2.37252,0.38423 -0.78201,0.0142 -1.56421,0.004 -2.34627,9e-5 -0.12823,-6.1e-4 -0.26954,-0.0583 -0.38468,-0.002 -0.10687,0.0524 -0.14975,0.18672 -0.20623,0.29148 -0.0545,0.101 -0.22323,0.37871 -0.12401,0.32109 15.65752,-9.09435 18.02617,-3.84218 15.07456,-9.77047 0,0 -16.15655,8.61026 -16.15655,8.61026 v 0 c -0.11272,-0.27405 -0.584,-0.65667 -0.33818,-0.82216 33.43115,-22.50698 8.719,-9.33402 16.75387,-9.25883 0.75023,-0.0105 1.50291,-0.0241 2.24679,-0.13208 0.7777,-0.12739 1.53858,-0.37288 2.33007,-0.3894 0.90736,-0.16723 1.78041,-0.45267 2.66758,-0.70122 0.53614,-0.0869 1.07041,-0.12316 1.60731,-0.20189 0.0187,-0.003 0.99941,-0.15496 1.02035,-0.15618 0.1588,-0.009 0.31788,0.0131 0.47682,0.0197 7.10723,-0.23426 -8.61739,10.90537 -14.70867,10.75179 -0.71854,0.11765 -1.39818,0.33745 -2.06471,0.63117 -0.45458,0.10064 -0.8363,0.38867 -1.29042,0.47055 -0.13016,0.0235 -0.26501,0.006 -0.39602,0.0243 -0.13006,0.0179 -0.25662,0.0556 -0.38493,0.0834 -0.76226,0.067 -1.40576,0.39787 -2.05445,0.79157 -0.34618,0.1291 -0.6921,0.36199 -1.05471,0.43738 -0.45728,0.0951 -0.92932,-0.0201 -1.3869,0.0768 -1.39345,0.0423 -2.78893,-0.11024 -4.18343,-0.0996 -1.32325,-0.0477 -2.6468,-0.10233 -3.96071,-0.27728 0,0 14.93655,-10.40787 14.93655,-10.40787 z"
     inkscape:connector-curvature="0" />
  <path
     style="fill:#000000;fill-opacity:1"
     id="path900"
     d="m 237.32089,213.64263 c 1.59064,-0.27912 3.09475,-0.9094 4.57667,-1.53532 2.18632,-0.78599 4.37048,-1.56458 6.53592,-2.40492 1.06926,-0.58196 2.19466,-0.94352 3.40491,-1.0339 0.41897,0.0616 0.75709,-0.15101 1.15448,-0.23023 0.12871,-0.0257 0.26376,-0.0217 0.38894,-0.0612 0.11709,-0.0369 0.2195,-0.10996 0.32925,-0.16494 0.12417,-0.039 0.24834,-0.0779 0.37251,-0.11692 0.38263,-0.15283 0.81839,-0.0705 1.20837,-0.16077 0.11973,-0.0277 0.22151,-0.10972 0.3398,-0.14303 0.13914,-0.0392 0.74791,-0.11486 0.87838,-0.13225 0.99567,-0.0533 1.9912,-0.11183 2.98858,-0.097 0.16342,2.8e-4 0.32683,5.6e-4 0.49025,8.4e-4 0,0 -14.536,10.59261 -14.536,10.59261 v 0 c -0.16017,0.005 -0.32033,0.01 -0.4805,0.0146 -0.9491,0.0603 -1.90939,0.0934 -2.83078,0.35263 -0.79323,0.20277 -1.59627,0.31278 -2.36705,0.60015 -0.77022,0.20674 -1.57039,0.25985 -2.35101,0.40076 -0.98815,0.29256 -1.9153,0.74855 -2.90001,1.05281 -2.08157,0.71626 -4.19236,1.35448 -6.21656,2.22869 -1.83563,0.71776 -3.72378,1.46699 -5.71756,1.54026 0,0 14.73141,-10.70299 14.73141,-10.70299 z"
     inkscape:connector-curvature="0" />
  <path
     style="fill:#000000;fill-opacity:1"
     id="path902"
     d="m 251.12745,209.80747 c 1.11244,0.12958 2.23887,0.11885 3.35776,0.11017 0.73365,-0.002 1.52566,-0.10334 2.23447,-0.3182 0.27522,-0.0834 0.53032,-0.22408 0.80295,-0.31562 0.38858,-0.17076 0.83663,-0.0971 1.2359,-0.1944 0.11976,-0.0292 0.22324,-0.10569 0.33961,-0.14636 0.28776,-0.10055 0.46991,-0.12025 0.76955,-0.17343 0.5377,-0.55491 1.33508,-0.33039 1.96478,-0.62259 0.34014,-0.18953 0.77686,-0.0782 1.12756,-0.195 0.10706,-0.0357 0.17846,-0.14286 0.28255,-0.18641 1.19641,-0.50062 -0.4756,0.37434 0.69191,-0.2638 5.32288,-4.09467 -17.97068,3.35278 -14.92702,8.98933 0,0 16.66664,-7.58695 16.66664,-7.58695 v 0 c 1.11997,6.4439 -9.75589,8.63116 -15.96827,9.71444 -0.26729,0.0596 -0.52245,0.1693 -0.79159,0.21994 -0.12374,0.0233 -0.25317,-0.005 -0.37745,0.015 -0.36155,0.0589 -0.69464,0.25819 -1.05814,0.31316 -0.70307,0.0853 -1.27039,0.53793 -1.986,0.55116 -0.7553,0.21601 -1.53482,0.28067 -2.28042,0.54198 -1.03984,0.20632 -2.10091,0.15746 -3.15516,0.14043 -1.22061,-0.01 -2.44514,-0.006 -3.66104,0.11017 0,0 14.73141,-10.703 14.73141,-10.703 z"
     inkscape:connector-curvature="0" />
  <path
     style="fill:#000000;fill-opacity:1"
     id="path904"
     d="m 252.39354,210.75517 c 1.2198,0.35624 2.46963,0.17713 3.70811,0.0571 1.08356,0.003 1.95222,-0.64733 2.98226,-0.88397 0.14132,-0.0199 0.28932,-0.0123 0.42396,-0.0596 0.11191,-0.0393 0.1931,-0.13917 0.2982,-0.19416 0.42185,-0.22074 0.90183,-0.22608 1.36506,-0.24198 0.38042,0.0647 0.66093,-0.15087 1.02107,-0.225 0.12524,-0.0258 0.26026,-0.0124 0.37881,-0.0603 0.10547,-0.0426 0.18266,-0.13563 0.27399,-0.20345 0,0 -14.29786,11.10969 -14.29786,11.10969 v 0 c -0.61971,0.0265 -1.22938,0.20767 -1.84203,0.28437 -0.3907,0.13771 -0.78069,0.37002 -1.18952,0.44549 -0.12275,0.0227 -0.25097,0.006 -0.37313,0.0317 -0.12229,0.0257 -0.2365,0.0808 -0.35475,0.12123 -0.99395,0.34872 -1.99168,0.46831 -3.04864,0.43686 -1.40985,0.0232 -2.81077,-0.0807 -4.21627,-0.18457 0,0 14.87074,-10.43341 14.87074,-10.43341 z"
     inkscape:connector-curvature="0" />
  <path
     style="fill:#000000;fill-opacity:1"
     id="path906"
     d="m 251.61353,211.15145 c 0.95846,0.2352 2.03412,0.10865 2.98615,-0.12438 0.55023,-0.0569 1.02232,-0.33856 1.54312,-0.49744 0.15778,-0.0481 0.32707,-0.0611 0.4783,-0.12697 0.24962,-0.10875 0.46408,-0.28723 0.71057,-0.4029 0.34688,-0.18891 0.76069,-0.0951 1.12364,-0.18184 0.11036,-0.0264 0.20292,-0.10306 0.3099,-0.14088 0.26022,-0.092 0.46666,-0.1126 0.73821,-0.15666 0.10874,-0.0548 0.21749,-0.10965 0.32624,-0.16447 0.1246,-0.0386 0.25462,-0.0627 0.3738,-0.11576 0.11794,-0.0525 0.21604,-0.14283 0.33252,-0.19844 0.38202,-0.1824 0.79657,-0.24328 1.20976,-0.306 0.54468,-0.0477 0.28948,0.0168 0.76866,-0.18094 0,0 -14.32776,10.99892 -14.32776,10.99892 v 0 c -0.53929,0.0815 -0.28501,0.0162 -0.76534,0.18609 -0.74437,0.31326 -1.48072,0.65008 -2.29054,0.75387 -0.67767,0.22382 -1.38114,0.31052 -2.00372,0.6859 -0.91437,0.31101 -1.89851,0.44204 -2.85777,0.53937 -1.20392,0.0294 -2.39875,0.0431 -3.59228,-0.15959 0,0 14.93654,-10.40788 14.93654,-10.40788 z"
     inkscape:connector-curvature="0" />
  <path
     style="fill:#000000;fill-opacity:1"
     id="path908"
     d="m 253.81206,208.65693 c 1.06366,0.12298 2.14137,0.10888 3.21101,0.0958 0.97598,-0.0189 1.95191,-0.0388 2.92802,-0.0491 0.74846,-0.0757 1.56928,0.1537 2.27259,-0.13988 0.11888,-0.0317 0.24351,-0.0468 0.35666,-0.0951 0.11282,-0.0482 0.20377,-0.13829 0.31428,-0.1916 0.36818,-0.17763 0.77301,-0.23485 1.17162,-0.2964 0,0 -14.35706,10.96558 -14.35706,10.96558 v 0 c -0.64985,0.22529 -1.27876,0.44083 -1.97949,0.41516 -0.79174,-0.072 -1.58708,-0.0307 -2.38145,-0.0481 -0.93107,-0.0101 -1.86196,-0.03 -2.79288,-0.0491 -1.15822,-0.0147 -2.32084,-0.0144 -3.47471,0.0958 0,0 14.73141,-10.70299 14.73141,-10.70299 z"
     inkscape:connector-curvature="0" />
  <path
     style="fill:#000000;fill-opacity:1"
     id="path910"
     d="m 257.64721,209.80747 c 0.87433,0.0815 1.75699,0.0694 2.63483,0.0716 0.90997,-0.006 1.81986,-0.0188 2.72982,-0.0258 0.47504,-0.13993 0.45356,-0.33002 0.94207,-0.52652 0,0 -14.25626,11.09875 -14.25626,11.09875 v 0 c -0.44794,0.13177 -0.82649,0.10919 -1.29124,0.0392 -0.88626,-0.007 -1.77246,-0.0202 -2.65873,-0.0258 -0.94382,0.002 -1.89075,-0.004 -2.83189,0.0716 0,0 14.7314,-10.703 14.7314,-10.703 z"
     inkscape:connector-curvature="0" />
  <path
     style="fill:#000000;fill-opacity:1"
     id="path914"
     d="m 251.9242,211.73679 c 1.41134,0.24556 2.79746,-0.17854 4.1476,-0.5463 0.59747,-0.24258 1.23833,-0.36255 1.83837,-0.59731 4.40496,-1.72338 25.01991,-14.07846 -12.4513,7.30617 0.24113,-0.20517 0.55524,-0.28099 0.81771,-0.4472 0.21281,-0.13475 0.35263,-0.36908 0.57045,-0.49558 16.30153,-9.46723 11.14747,-5.17194 16.06131,-9.29058 -23.9034,16.96825 -19.37861,11.77114 -14.28777,8.17573 0,0 16.7958,-6.65748 16.7958,-6.65748 v 0 c -0.19523,0.14853 -0.4238,0.25091 -0.61347,0.40646 -0.095,0.0779 -0.16167,0.18495 -0.2425,0.27743 -5.25099,3.06719 -10.50199,6.13437 -15.75299,9.20156 -5.83279,2.00996 -0.12428,0.0641 14.89447,-8.67655 0.10941,-0.0637 -0.24192,0.08 -0.35208,0.14239 -0.46537,0.26352 -0.71371,0.76648 -1.23098,0.95929 -7.19576,4.11326 -12.47133,8.57213 -19.99948,10.34826 -1.61798,0.34763 -3.24232,0.50723 -4.89423,0.57322 0,0 14.69909,-10.67951 14.69909,-10.67951 z"
     inkscape:connector-curvature="0" />
  <path
     style="fill:#000000;fill-opacity:1"
     id="path916"
     d="m 254.25501,211.74853 c 2.27322,0.0524 4.42777,-0.63012 6.5558,-1.34038 0.44167,-0.18913 0.88671,-0.3706 1.32502,-0.56739 1.07711,-0.48359 1.31684,-0.615 2.32581,-1.17075 0.32639,-0.17977 1.29713,-0.73416 0.97399,-0.54861 -14.65279,8.41394 -18.87458,11.07155 -13.6536,7.7983 0,0 16.54154,-6.41766 16.54154,-6.41766 v 0 c -6.73986,4.21454 -13.4532,8.84583 -21.04579,11.37375 -2.51553,0.7208 -5.07913,1.28893 -7.68955,1.52877 0,0 14.66678,-10.65603 14.66678,-10.65603 z"
     inkscape:connector-curvature="0" />
  <path
     style="fill:#000000;fill-opacity:1"
     id="path920"
     d="m 247.80894,213.05036 c 2.79389,0.69164 5.66235,-0.0338 8.3695,-0.75994 1.84075,-0.7956 2.21876,-0.90326 3.96576,-1.87889 0.59695,-0.33337 2.35133,-1.39642 1.75595,-1.06023 -22.18976,12.52961 -15.3019,9.49949 -10.84124,5.75283 0,0 15.97524,-6.53771 15.97524,-6.53771 v 0 c -0.33697,0.33379 -0.65198,0.69131 -1.0109,1.00137 -0.40834,0.35276 -0.82352,0.70532 -1.28618,0.98303 -5.24016,3.14544 -10.52597,6.21444 -15.81283,9.28073 -0.96876,0.56186 -2.64596,1.34282 -3.66636,1.73508 -0.70884,0.27248 -1.43902,0.48577 -2.15853,0.72866 -3.3185,0.7863 -6.67748,1.37626 -10.10458,1.20029 0,0 14.81417,-10.44522 14.81417,-10.44522 z"
     inkscape:connector-curvature="0" />
</svg>
